<svg xmlns="http://www.w3.org/2000/svg" width="24" height="24"><path d="M7.5 19.828H4.219V9.234H7.5zm.328-13.969a1.922 1.922 0 10-1.921 1.922 1.922 1.922 0 001.921-1.922zM19.781 14c0-2.844-.6-4.953-3.923-4.953a3.405 3.405 0 00-3.105 1.629V9.234h-3.19v10.594h3.187v-5.26c0-1.378.351-2.712 2.058-2.712 1.684 0 1.739 1.575 1.739 2.8v5.172h3.234zM24 21.188V2.813A2.816 2.816 0 0021.188 0H2.813A2.816 2.816 0 000 2.813v18.375A2.816 2.816 0 002.813 24h18.375A2.816 2.816 0 0024 21.188zM21.188 1.875a.939.939 0 01.938.938v18.375a.939.939 0 01-.937.938H2.813a.939.939 0 01-.937-.937V2.813a.939.939 0 01.938-.937zm0 0" fill="#707070"/></svg>