<svg xmlns="http://www.w3.org/2000/svg" width="25.093" height="25.093"><path d="M7.842 20.731H4.411V9.655h3.431zm.342-14.605a2.009 2.009 0 10-2.008 2.01 2.01 2.01 0 002.008-2.01zm12.5 8.511c0-2.973-.628-5.179-4.1-5.179a3.56 3.56 0 00-3.247 1.7V9.655H10v11.076h3.333v-5.5c0-1.44.367-2.835 2.152-2.835 1.761 0 1.818 1.647 1.818 2.927v5.408h3.382zm4.411 7.515V2.941A2.944 2.944 0 0022.152 0H2.941A2.944 2.944 0 000 2.941v19.211a2.944 2.944 0 002.941 2.941h19.211a2.944 2.944 0 002.941-2.941zM22.152 1.96a.981.981 0 01.98.98v19.212a.981.981 0 01-.98.98H2.941a.981.981 0 01-.98-.98V2.941a.981.981 0 01.98-.98zm0 0" fill="#e5a630"/></svg>